[Header]
FileType HTR
DataType HTRS
FileVersion 1
NumSegments 64
NumFrames 3
DataFrameRate 24
EulerRotationOrder ZYX
CalibrationUnits mm
RotationUnits Degrees
GlobalAxisofGravity Y
BoneLengthAxis Y
ScaleFactor 1.0
[SegmentNames&Hierarchy]
Hips	GLOBAL
Spine	Hips
Spine1	Spine
Spine2	Spine1
Neck	Spine2
Head	Neck
LeftEye	Head
RightEye	Head
LeftShoulder	Spine2
LeftArm	LeftShoulder
LeftForeArm	LeftArm
LeftHand	LeftForeArm
LeftHandThumb1	LeftHand
LeftHandThumb2	LeftHandThumb1
LeftHandThumb3	LeftHandThumb2
LeftHandThumb4	LeftHandThumb3
LeftHandIndex1	LeftHand
LeftHandIndex2	LeftHandIndex1
LeftHandIndex3	LeftHandIndex2
LeftHandIndex4	LeftHandIndex3
LeftHandMiddle1	LeftHand
LeftHandMiddle2	LeftHandMiddle1
LeftHandMiddle3	LeftHandMiddle2
LeftHandMiddle4	LeftHandMiddle3
LeftHandRing1	LeftHand
LeftHandRing2	LeftHandRing1
LeftHandRing3	LeftHandRing2
LeftHandRing4	LeftHandRing3
LeftHandPinky1	LeftHand
LeftHandPinky2	LeftHandPinky1
LeftHandPinky3	LeftHandPinky2
LeftHandPinky4	LeftHandPinky3
RightShoulder	Spine2
RightArm	RightShoulder
RightForeArm	RightArm
RightHand	RightForeArm
RightHandPinky1	RightHand
RightHandPinky2	RightHandPinky1
RightHandPinky3	RightHandPinky2
RightHandPinky4	RightHandPinky3
RightHandRing1	RightHand
RightHandRing2	RightHandRing1
RightHandRing3	RightHandRing2
RightHandRing4	RightHandRing3
RightHandMiddle1	RightHand
RightHandMiddle2	RightHandMiddle1
RightHandMiddle3	RightHandMiddle2
RightHandMiddle4	RightHandMiddle3
RightHandIndex1	RightHand
RightHandIndex2	RightHandIndex1
RightHandIndex3	RightHandIndex2
RightHandIndex4	RightHandIndex3
RightHandThumb1	RightHand
RightHandThumb2	RightHandThumb1
RightHandThumb3	RightHandThumb2
RightHandThumb4	RightHandThumb3
LeftUpLeg	Hips
LeftLeg	LeftUpLeg
LeftFoot	LeftLeg
LeftToeBase	LeftFoot
RightUpLeg	Hips
RightLeg	RightUpLeg
RightFoot	RightLeg
RightToeBase	RightFoot
[BasePosition]
Hips	0	0	0	0	0	0	1
Spine	0	0	0	0	0	0	1
Spine1	0	0	0	0	0	0	1
Spine2	0	0	0	0	0	0	1
Neck	0	0	0	0	0	0	1
Head	0	0	0	0	0	0	1
LeftEye	0	0	0	0	0	0	1
RightEye	0	0	0	0	0	0	1
LeftShoulder	0	0	0	0	0	0	1
LeftArm	0	0	0	0	0	0	1
LeftForeArm	0	0	0	0	0	0	1
LeftHand	0	0	0	0	0	0	1
LeftHandThumb1	0	0	0	0	0	0	1
LeftHandThumb2	0	0	0	0	0	0	1
LeftHandThumb3	0	0	0	0	0	0	1
LeftHandThumb4	0	0	0	0	0	0	1
LeftHandIndex1	0	0	0	0	0	0	1
LeftHandIndex2	0	0	0	0	0	0	1
LeftHandIndex3	0	0	0	0	0	0	1
LeftHandIndex4	0	0	0	0	0	0	1
LeftHandMiddle1	0	0	0	0	0	0	1
LeftHandMiddle2	0	0	0	0	0	0	1
LeftHandMiddle3	0	0	0	0	0	0	1
LeftHandMiddle4	0	0	0	0	0	0	1
LeftHandRing1	0	0	0	0	0	0	1
LeftHandRing2	0	0	0	0	0	0	1
LeftHandRing3	0	0	0	0	0	0	1
LeftHandRing4	0	0	0	0	0	0	1
LeftHandPinky1	0	0	0	0	0	0	1
LeftHandPinky2	0	0	0	0	0	0	1
LeftHandPinky3	0	0	0	0	0	0	1
LeftHandPinky4	0	0	0	0	0	0	1
RightShoulder	0	0	0	0	0	0	1
RightArm	0	0	0	0	0	0	1
RightForeArm	0	0	0	0	0	0	1
RightHand	0	0	0	0	0	0	1
RightHandPinky1	0	0	0	0	0	0	1
RightHandPinky2	0	0	0	0	0	0	1
RightHandPinky3	0	0	0	0	0	0	1
RightHandPinky4	0	0	0	0	0	0	1
RightHandRing1	0	0	0	0	0	0	1
RightHandRing2	0	0	0	0	0	0	1
RightHandRing3	0	0	0	0	0	0	1
RightHandRing4	0	0	0	0	0	0	1
RightHandMiddle1	0	0	0	0	0	0	1
RightHandMiddle2	0	0	0	0	0	0	1
RightHandMiddle3	0	0	0	0	0	0	1
RightHandMiddle4	0	0	0	0	0	0	1
RightHandIndex1	0	0	0	0	0	0	1
RightHandIndex2	0	0	0	0	0	0	1
RightHandIndex3	0	0	0	0	0	0	1
RightHandIndex4	0	0	0	0	0	0	1
RightHandThumb1	0	0	0	0	0	0	1
RightHandThumb2	0	0	0	0	0	0	1
RightHandThumb3	0	0	0	0	0	0	1
RightHandThumb4	0	0	0	0	0	0	1
LeftUpLeg	0	0	0	0	0	0	1
LeftLeg	0	0	0	0	0	0	1
LeftFoot	0	0	0	0	0	0	1
LeftToeBase	0	0	0	0	0	0	1
RightUpLeg	0	0	0	0	0	0	1
RightLeg	0	0	0	0	0	0	1
RightFoot	0	0	0	0	0	0	1
RightToeBase	0	0	0	0	0	0	1
[Hips]
9	588.3561401	930.0678101	10.94202995	5.151359081	60.92320633	-1.398185253	1.0
10	663.4558105	932.817688	6.389671326	8.050592422	60.73946381	2.092195034	1.0
11	735.1624756	946.0493164	3.67903471	9.797709465	60.40102768	4.610551834	1.0
[Spine]
9	0	101.8159943	1.315000057	5.314826012	-2.354575157	-1.942830324	1.0
10	0	101.8159943	1.315000057	5.534110069	-2.603798151	-3.319781542	1.0
11	0	101.8159943	1.315000057	5.789263248	-3.228601456	-4.062085629	1.0
[Spine1]
9	0	100.8349991	-10.00800037	3.934716463	-3.465135813	-0.4663604796	1.0
10	0	100.8349991	-10.00800037	4.112161636	-3.412019968	-1.210997939	1.0
11	0	100.8349991	-10.00800037	4.234553337	-3.435743332	-1.490628958	1.0
[Spine2]
9	0	91	-13.73399925	3.912035465	-3.491234541	-0.500336647	1.0
10	0	91	-13.73399925	4.079047203	-3.445445061	-1.246013641	1.0
11	0	91	-13.73399925	4.207431316	-3.461426497	-1.519688249	1.0
[Neck]
9	0	166.7169952	-25.16200066	4.038660526	-6.028061867	-1.282512307	1.0
10	0	166.7169952	-25.16200066	3.846005201	-6.000694752	-1.161666393	1.0
11	0	166.7169952	-25.16200066	3.820538282	-5.79659605	-1.417518616	1.0
[Head]
9	0	96.17900085	16.84999847	-13.71396923	-34.90789795	16.64676285	1.0
10	0	96.17900085	16.84999847	-15.25809669	-34.64943695	18.48328972	1.0
11	0	96.17900085	16.84999847	-15.08561134	-33.88145828	17.57681465	1.0
[LeftEye]
9	30.6760006	64.09500122	92.83599854	0	0	0	1.0
10	30.6760006	64.09500122	92.83599854	0	0	0	1.0
11	30.6760006	64.09500122	92.83599854	0	0	0	1.0
[RightEye]
9	-30.6760006	64.09500122	92.83499908	0	0	0	1.0
10	-30.6760006	64.09500122	92.83499908	0	0	0	1.0
11	-30.6760006	64.09500122	92.83499908	0	0	0	1.0
[LeftShoulder]
9	45.70400238	109.4599991	-26.28000069	2.103670359	-3.025467634	-9.968551636	1.0
10	45.70400238	109.4599991	-26.28000069	1.753233552	-3.556522131	-10.08166409	1.0
11	45.70400238	109.4599991	-26.28000069	1.181385636	-4.296214104	-10.16714287	1.0
[LeftArm]
9	105.923996	-5.24600029	-22.32099915	20.02733612	-2.301483631	-65.84555054	1.0
10	105.923996	-5.24600029	-22.32099915	21.41286087	-3.358356476	-65.1315918	1.0
11	105.923996	-5.24600029	-22.32099915	24.47141075	-5.507730961	-62.66413879	1.0
[LeftForeArm]
9	278.414978	-0.0009999999311	0	-3.184908337e-06	-7.825969696	-0.0002039429819	1.0
10	278.414978	-0.0009999999311	0	2.346946815e-07	-6.829847813	-0.0002121715952	1.0
11	278.414978	-0.0009999999311	0	-7.059541076e-07	-7.094025135	-0.0002162513265	1.0
[LeftHand]
9	283.2879944	0	0	-1.804952979	1.164499164	4.886692047	1.0
10	283.2879944	0	0	-2.604030371	1.72504425	6.938202381	1.0
11	283.2879944	0	0	-2.598078251	2.450133085	10.18441677	1.0
[LeftHandThumb1]
9	24.6609993	-15.75	26.8239994	0.9464570284	1.151123047	0.2541034818	1.0
10	24.6609993	-15.75	26.8239994	0.9464570284	1.151123047	0.2541034818	1.0
11	24.6609993	-15.75	26.8239994	0.9464570284	1.151123047	0.2541034818	1.0
[LeftHandThumb2]
9	32.29800034	-18.64699936	18.64699936	16.68732071	1.829166889	16.96038246	1.0
10	32.29800034	-18.64699936	18.64699936	16.61092758	1.40433681	16.87080002	1.0
11	32.29800034	-18.64699936	18.64699936	16.60085106	1.584673882	16.76572227	1.0
[LeftHandThumb3]
9	26.52600098	-15.31499958	15.31499958	-4.228540421	-15.88260937	23.21227646	1.0
10	26.52600098	-15.31499958	15.31499958	-3.762681007	-14.77429676	22.74680328	1.0
11	26.52600098	-15.31499958	15.31499958	-3.943063974	-15.21362114	22.8885746	1.0
[LeftHandThumb4]
9	19.54599953	-11.28499985	11.28499985	0	0	0	1.0
10	19.54599953	-11.28499985	11.28499985	0	0	0	1.0
11	19.54599953	-11.28499985	11.28499985	0	0	0	1.0
[LeftHandIndex1]
9	91.09299469	-5.170999527	22.60099792	-1.486647606	0.754430294	-27.91223335	1.0
10	91.09299469	-5.170999527	22.60099792	-1.480335593	0.3396236598	-27.24066544	1.0
11	91.09299469	-5.170999527	22.60099792	-1.538880944	0.6125172973	-28.27396584	1.0
[LeftHandIndex2]
9	36.76399994	0	0	-0.1288352609	1.220364451	-12.0524559	1.0
10	36.76399994	0	0	-0.128820166	1.220316172	-12.05185699	1.0
11	36.76399994	0	0	-0.1291394234	1.221787453	-12.06669235	1.0
[LeftHandIndex3]
9	28.83100128	0	0	-0.1340482235	1.244488835	-12.29441452	1.0
10	28.83100128	0	0	-0.1340314895	1.244423985	-12.29379654	1.0
11	28.83100128	0	0	-0.1343498826	1.245918036	-12.30873489	1.0
[LeftHandIndex4]
9	23.92700005	0	0	0	0	0	1.0
10	23.92700005	0	0	0	0	0	1.0
11	23.92700005	0	0	0	0	0	1.0
[LeftHandMiddle1]
9	95.33399963	0	0	-2.142454147	4.632851124	-32.68815994	1.0
10	95.33399963	0	0	-2.100952625	4.326105595	-32.22767639	1.0
11	95.33399963	0	0	-2.172397852	4.517556667	-33.02112198	1.0
[LeftHandMiddle2]
9	36.98199844	0	0	-0.3042063713	1.860735297	-18.56848526	1.0
10	36.98199844	0	0	-0.3043232262	1.861100197	-18.57222939	1.0
11	36.98199844	0	0	-0.3044140339	1.861342311	-18.57479668	1.0
[LeftHandMiddle3]
9	29.50900078	0	0	-0.1098572463	1.127838254	-11.1261797	1.0
10	29.50900078	0	0	-0.1099348292	1.128212452	-11.12992954	1.0
11	29.50900078	0	0	-0.1099838391	1.128475666	-11.13251877	1.0
[LeftHandMiddle4]
9	28.3390007	0	0	0	0	0	1.0
10	28.3390007	0	0	0	0	0	1.0
11	28.3390007	0	0	0	0	0	1.0
[LeftHandRing1]
9	91.04499817	-0.4390000105	-18.65100098	-2.324039698	7.730587482	-34.71203613	1.0
10	91.04499817	-0.4390000105	-18.65100098	-2.269561291	7.524220467	-34.11502838	1.0
11	91.04499817	-0.4390000105	-18.65100098	-2.329833508	7.599025726	-34.77099991	1.0
[LeftHandRing2]
9	31.54000092	0	0	-0.4632232785	2.279761553	-22.96805	1.0
10	31.54000092	0	0	-0.4632282853	2.279789925	-22.96831322	1.0
11	31.54000092	0	0	-0.4641005099	2.281848431	-22.99024773	1.0
[LeftHandRing3]
9	29.37700081	0	0	-0.3320910633	1.941718817	-19.40892029	1.0
10	29.37700081	0	0	-0.3321466148	1.941866875	-19.41047287	1.0
11	29.37700081	0	0	-0.3328826129	1.943955421	-19.43223	1.0
[LeftHandRing4]
9	26.47500038	0	0	0	0	0	1.0
10	26.47500038	0	0	0	0	0	1.0
11	26.47500038	0	0	0	0	0	1.0
[LeftHandPinky1]
9	80.77799988	-4.887000084	-38.06099701	-2.609204292	4.739758968	-37.69332123	1.0
10	80.77799988	-4.887000084	-38.06099701	-2.588698864	4.52959919	-37.47956848	1.0
11	80.77799988	-4.887000084	-38.06099701	-2.599725723	4.70624733	-37.5941925	1.0
[LeftHandPinky2]
9	36	0	0	-0.4854299426	2.331409454	-23.52001381	1.0
10	36	0	0	-0.4859721363	2.332671642	-23.53341293	1.0
11	36	0	0	-0.4886815548	2.338878632	-23.59989548	1.0
[LeftHandPinky3]
9	21.14200211	0	0	-0.2088595629	1.548359394	-15.36398792	1.0
10	21.14200211	0	0	-0.2092329562	1.549698114	-15.37766457	1.0
11	21.14200211	0	0	-0.2110500336	1.556286216	-15.44469166	1.0
[LeftHandPinky4]
9	19.75699997	0	0	0	0	0	1.0
10	19.75699997	0	0	0	0	0	1.0
11	19.75699997	0	0	0	0	0	1.0
[RightShoulder]
9	-45.70000076	109.4620056	-26.28000069	-0.003297374817	5.23630619	9.139247894	1.0
10	-45.70000076	109.4620056	-26.28000069	0.1298081428	4.862919807	8.843773842	1.0
11	-45.70000076	109.4620056	-26.28000069	0.3122002482	3.836552143	8.544192314	1.0
[RightArm]
9	-105.9280014	-5.248000145	-22.32099915	14.7929039	15.6407938	67.3706665	1.0
10	-105.9280014	-5.248000145	-22.32099915	15.44295979	15.75357914	69.35792542	1.0
11	-105.9280014	-5.248000145	-22.32099915	16.84168625	15.52328682	70.8854599	1.0
[RightForeArm]
9	-278.414978	0	0	2.349623401e-06	31.8881588	8.19082743e-06	1.0
10	-278.414978	0	0	-6.421763828e-06	33.64768982	-3.324611498e-06	1.0
11	-278.414978	0	0	1.970627636e-06	34.5188446	4.238492238e-06	1.0
[RightHand]
9	-283.2879944	0	0.0009999999311	9.541453362	15.05604553	-1.641006827	1.0
10	-283.2879944	0	0.0009999999311	8.901573181	20.07712555	-3.388223886	1.0
11	-283.2879944	0	0.0009999999311	9.015568733	25.15729141	-4.662209511	1.0
[RightHandPinky1]
9	-80.76699829	-4.885000229	-38.06000137	-1.664979219	-2.181338072	29.09614372	1.0
10	-80.76699829	-4.885000229	-38.06000137	-1.618238449	-2.902322769	28.45132637	1.0
11	-80.76699829	-4.885000229	-38.06000137	-1.619026184	-3.268735409	28.45724106	1.0
[RightHandPinky2]
9	-36	0	0.0009999999311	-0.3801015913	-1.839008927	23.37423325	1.0
10	-36	0	0.0009999999311	-0.3663292229	-1.806779146	22.94083405	1.0
11	-36	0	0.0009999999311	-0.3601186872	-1.792048812	22.74351692	1.0
[RightHandPinky3]
9	-21.14200211	0	0	-0.4320296943	-1.954783916	24.92277145	1.0
10	-21.14200211	0	0	-0.4204243124	-1.929644108	24.58064079	1.0
11	-21.14200211	0	0	-0.4143798351	-1.916368246	24.40034103	1.0
[RightHandPinky4]
9	-19.75699997	0	0	0	0	0	1.0
10	-19.75699997	0	0	0	0	0	1.0
11	-19.75699997	0	0	0	0	0	1.0
[RightHandRing1]
9	-91.03599548	-0.4390000105	-18.65100098	-1.856506109	-2.688707113	31.82197762	1.0
10	-91.03599548	-0.4390000105	-18.65100098	-1.724027395	-3.155569553	30.07325745	1.0
11	-91.03599548	-0.4390000105	-18.65100098	-1.69410491	-3.304168463	29.67471123	1.0
[RightHandRing2]
9	-31.54000092	0	0	-0.6821601391	-2.421032667	31.46746063	1.0
10	-31.54000092	0	0	-0.6761751175	-2.411287069	31.32613373	1.0
11	-31.54000092	0	0	-0.679569006	-2.416814804	31.40644646	1.0
[RightHandRing3]
9	-29.37700081	0	0	-0.7589080334	-2.542100668	33.2401886	1.0
10	-29.37700081	0	0	-0.7525587678	-2.532380581	33.09674454	1.0
11	-29.37700081	0	0	-0.7561852336	-2.537893772	33.17818451	1.0
[RightHandRing4]
9	-26.47500038	0	0	0	0	0	1.0
10	-26.47500038	0	0	0	0	0	1.0
11	-26.47500038	0	0	0	0	0	1.0
[RightHandMiddle1]
9	-95.32500458	0	0	-2.104628563	-1.459953547	35.03005219	1.0
10	-95.32500458	0	0	-1.962729931	-1.620079637	33.22343826	1.0
11	-95.32500458	0	0	-1.961843133	-1.502904415	33.21548843	1.0
[RightHandMiddle2]
9	-36.98199844	0	0	-0.4388611913	-1.969464064	25.12298012	1.0
10	-36.98199844	0	0	-0.4346824884	-1.960514903	25.00082588	1.0
11	-36.98199844	0	0	-0.4366220534	-1.964651108	25.05727959	1.0
[RightHandMiddle3]
9	-29.50900078	0	0	-0.3058808446	-1.658668756	20.92137146	1.0
10	-29.50900078	0	0	-0.302333653	-1.649340749	20.79807472	1.0
11	-29.50900078	0	0	-0.3039597273	-1.653661609	20.85503197	1.0
[RightHandMiddle4]
9	-28.3390007	0	0.0009999999311	0	0	0	1.0
10	-28.3390007	0	0.0009999999311	0	0	0	1.0
11	-28.3390007	0	0.0009999999311	0	0	0	1.0
[RightHandIndex1]
9	-91.08300018	-5.167999744	22.60099792	-1.08749795	6.613424301	22.58551025	1.0
10	-91.08300018	-5.167999744	22.60099792	-0.8858224154	6.668094635	19.80289268	1.0
11	-91.08300018	-5.167999744	22.60099792	-0.8141778708	6.822700977	18.58175087	1.0
[RightHandIndex2]
9	-36.76399994	0	0	-0.5691100955	-2.226002693	28.68000793	1.0
10	-36.76399994	0	0	-0.5671585202	-2.222457409	28.62987328	1.0
11	-36.76399994	0	0	-0.5687761307	-2.225385904	28.6714344	1.0
[RightHandIndex3]
9	-28.83100128	0	0	-0.233920753	-1.454557896	18.27078629	1.0
10	-28.83100128	0	0	-0.2326466739	-1.450663447	18.2201767	1.0
11	-28.83100128	0	0	-0.2336968482	-1.453898787	18.26215363	1.0
[RightHandIndex4]
9	-23.92700005	0	0	0	0	0	1.0
10	-23.92700005	0	0	0	0	0	1.0
11	-23.92700005	0	0	0	0	0	1.0
[RightHandThumb1]
9	-24.64799881	-15.72700024	26.82600021	30.15343666	21.14214134	-10.25145817	1.0
10	-24.64799881	-15.72700024	26.82600021	30.15343666	21.14214134	-10.25145817	1.0
11	-24.64799881	-15.72700024	26.82600021	30.15343666	21.14214134	-10.25145817	1.0
[RightHandThumb2]
9	-32.29800034	-18.64699936	18.64699936	11.62697887	-18.85843658	1.275084734	1.0
10	-32.29800034	-18.64699936	18.64699936	11.5966959	-17.97507858	0.8285034299	1.0
11	-32.29800034	-18.64699936	18.64699936	11.16363716	-18.2586422	0.3959293067	1.0
[RightHandThumb3]
9	-26.52600098	-15.31399918	15.31399918	-11.9055748	-13.53718281	-10.36679173	1.0
10	-26.52600098	-15.31399918	15.31399918	-11.85393238	-13.65496063	-10.33426285	1.0
11	-26.52600098	-15.31399918	15.31399918	-11.80429268	-13.76974106	-10.30254936	1.0
[RightHandThumb4]
9	-19.54599953	-11.28499985	11.28499985	0	0	0	1.0
10	-19.54599953	-11.28499985	11.28499985	0	0	0	1.0
11	-19.54599953	-11.28499985	11.28499985	0	0	0	1.0
[LeftUpLeg]
9	82.07800293	-67.51699829	-15.99599934	-46.51282883	9.437281609	4.334689617	1.0
10	82.07800293	-67.51699829	-15.99599934	-45.45147705	8.602933884	0.6662542224	1.0
11	82.07800293	-67.51699829	-15.99599934	-40.89571381	8.211572647	-2.536211729	1.0
[LeftLeg]
9	0	-443.7049866	2.845999956	35.67657089	-1.081319809	-0.6055476069	1.0
10	0	-443.7049866	2.845999956	42.5712738	-0.4300801754	-0.4077719152	1.0
11	0	-443.7049866	2.845999956	43.43422699	-0.02050129697	-0.1645753086	1.0
[LeftFoot]
9	0	-444.2789917	-29.8219986	5.016088486	0.7041072249	-4.829013348	1.0
10	0	-444.2789917	-29.8219986	-3.048406363	0.2161126733	-2.570070505	1.0
11	0	-444.2789917	-29.8219986	-8.297830582	0.2421663851	-0.496478647	1.0
[LeftToeBase]
9	0	-87.28699493	107.1060028	-9.353415489	1.274599799e-05	-4.621756489e-06	1.0
10	0	-87.28699493	107.1060028	-8.563555717	-2.194798253e-05	-9.642085388e-07	1.0
11	0	-87.28699493	107.1060028	-8.80548954	2.195637171e-05	-1.368287599e-06	1.0
[RightUpLeg]
9	-82.07800293	-67.51699829	-15.99599934	3.715498209	-6.819907188	-20.35415649	1.0
10	-82.07800293	-67.51699829	-15.99599934	-5.240520477	-1.183826923	-21.26102448	1.0
11	-82.07800293	-67.51699829	-15.99599934	-15.01686096	2.540334463	-19.92219925	1.0
[RightLeg]
9	0	-443.7049866	2.861999989	31.7644043	8.286962509	5.886964798	1.0
10	0	-443.7049866	2.861999989	50.71852112	5.490229607	6.946804523	1.0
11	0	-443.7049866	2.861999989	65.88088989	2.829642773	6.587584972	1.0
[RightFoot]
9	0	-444.2770081	-29.83799934	-2.189994574	8.234920502	6.84053421	1.0
10	0	-444.2770081	-29.83799934	10.50177765	-0.357834965	4.99364996	1.0
11	0	-444.2770081	-29.83799934	11.93211174	-0.2797114849	1.560327411	1.0
[RightToeBase]
9	0	-87.28699493	107.1060028	-27.22251892	1.65652132	3.677571058	1.0
10	0	-87.28699493	107.1060028	-15.08189869	-5.782191579e-07	1.416337e-06	1.0
11	0	-87.28699493	107.1060028	-11.11676979	5.020986464e-06	-1.828779773e-06	1.0
[EndOfFile]
